<svg width="40" height="40" viewBox="0 0 40 40" fill="none" xmlns="http://www.w3.org/2000/svg">
<path d="M34.2333 8.71667L31.9167 5.91667C31.4667 5.35 30.7833 5 30 5H10C9.21667 5 8.53333 5.35 8.06667 5.91667L5.76667 8.71667C5.28333 9.28333 5 10.0333 5 10.8333V31.6667C5 33.5 6.5 35 8.33333 35H31.6667C33.5 35 35 33.5 35 31.6667V10.8333C35 10.0333 34.7167 9.28333 34.2333 8.71667ZM10.4 8.33333H29.6L30.95 9.95H9.06667L10.4 8.33333ZM8.33333 31.6667V13.3333H31.6667V31.6667H8.33333ZM22.4167 16.6667H17.5833V21.6667H13.3333L20 28.3333L26.6667 21.6667H22.4167V16.6667Z" fill="white"/>
</svg>
