<svg width="48" height="48" viewBox="0 0 48 48" fill="none" xmlns="http://www.w3.org/2000/svg">
<g clip-path="url(#clip0)">
<mask id="path-1-outside-1" maskUnits="userSpaceOnUse" x="4.17621" y="1.81215" width="38.7432" height="44.838" fill="black">
<rect fill="white" x="4.17621" y="1.81215" width="38.7432" height="44.838"/>
<path fill-rule="evenodd" clip-rule="evenodd" d="M36.075 8.50108C29.5044 3.37848 20.0141 4.54373 14.8779 11.1038C9.74175 17.6638 10.9046 27.1344 17.4752 32.257L36.075 8.50108ZM36.075 8.50126C29.5044 3.37865 20.0142 4.54391 14.878 11.1039C9.74178 17.664 10.8833 27.1225 17.4539 32.2451L36.075 8.50126ZM11.3773 39.9873C17.9479 45.1099 27.4382 43.9446 32.5744 37.3846C37.7105 30.8246 36.5706 21.383 30 16.2604L11.3773 39.9873Z"/>
</mask>
<path fill-rule="evenodd" clip-rule="evenodd" d="M36.075 8.50108C29.5044 3.37848 20.0141 4.54373 14.8779 11.1038C9.74175 17.6638 10.9046 27.1344 17.4752 32.257L36.075 8.50108ZM36.075 8.50126C29.5044 3.37865 20.0142 4.54391 14.878 11.1039C9.74178 17.664 10.8833 27.1225 17.4539 32.2451L36.075 8.50126ZM11.3773 39.9873C17.9479 45.1099 27.4382 43.9446 32.5744 37.3846C37.7105 30.8246 36.5706 21.383 30 16.2604L11.3773 39.9873Z" fill="white" fill-opacity="0.87"/>
<path d="M36.075 8.50108L37.2561 9.4258L38.1827 8.24229L36.9973 7.31811L36.075 8.50108ZM17.4752 32.257L16.553 33.44L17.7335 34.3604L18.6563 33.1817L17.4752 32.257ZM36.075 8.50126L37.2554 9.42692L38.1837 8.24321L36.9973 7.31829L36.075 8.50126ZM17.4539 32.2451L16.5317 33.4281L17.7112 34.3477L18.6342 33.1708L17.4539 32.2451ZM11.3773 39.9873L10.1973 39.0611L9.26818 40.2449L10.455 41.1702L11.3773 39.9873ZM30 16.2604L30.9222 15.0775L29.7431 14.1582L28.82 15.3343L30 16.2604ZM36.9973 7.31811C29.7743 1.6869 19.343 2.96769 13.6969 10.179L16.059 12.0285C20.6852 6.11978 29.2345 5.07006 35.1527 9.68405L36.9973 7.31811ZM13.6969 10.179C8.04924 17.3923 9.32804 27.8073 16.553 33.44L18.3975 31.0741C12.4812 26.4616 11.4343 17.9353 16.059 12.0285L13.6969 10.179ZM18.6563 33.1817L37.2561 9.4258L34.8939 7.57637L16.2942 31.3323L18.6563 33.1817ZM36.9973 7.31829C29.7743 1.68707 19.343 2.96787 13.6969 10.1792L16.059 12.0286C20.6853 6.11995 29.2345 5.07023 35.1528 9.68423L36.9973 7.31829ZM13.6969 10.1792C8.0515 17.3896 9.30389 27.7932 16.5317 33.4281L18.3762 31.0621C12.4627 26.4519 11.4321 17.9383 16.059 12.0286L13.6969 10.1792ZM18.6342 33.1708L37.2554 9.42692L34.8947 7.5756L16.2736 31.3194L18.6342 33.1708ZM10.455 41.1702C17.678 46.8014 28.1093 45.5207 33.7554 38.3093L31.3933 36.4599C26.7671 42.3686 18.2178 43.4183 12.2996 38.8043L10.455 41.1702ZM33.7554 38.3093C39.4009 31.0988 38.1499 20.7123 30.9222 15.0775L29.0777 17.4434C34.9913 22.0537 36.0202 30.5503 31.3933 36.4599L33.7554 38.3093ZM28.82 15.3343L10.1973 39.0611L12.5572 40.9134L31.1799 17.1866L28.82 15.3343Z" fill="white" fill-opacity="0.87" mask="url(#path-1-outside-1)"/>
</g>
<defs>
<clipPath id="clip0">
<rect width="48" height="48" fill="white"/>
</clipPath>
</defs>
</svg>
